<svg version="1.1" viewBox="0.0 0.0 1152.0 159.87926509186352" fill="none" stroke="none" stroke-linecap="square" stroke-miterlimit="10" xmlns:xlink="http://www.w3.org/1999/xlink" xmlns="http://www.w3.org/2000/svg"><clipPath id="p.0"><path d="m0 0l1152.0 0l0 159.87927l-1152.0 0l0 -159.87927z" clip-rule="nonzero"/></clipPath><g clip-path="url(#p.0)"><path fill="#000000" fill-opacity="0.0" d="m0 0l1152.0 0l0 159.87927l-1152.0 0z" fill-rule="evenodd"/><path fill="#000000" fill-opacity="0.0" d="m0 0l1152.0 0l0 159.87401l-1152.0 0z" fill-rule="evenodd"/><path fill="#ffffff" d="m136.3125 127.255005q0 1.25 -0.125 1.875q-0.625 0.25 -1.0 0.6875q-0.375 0.4375 -1.25 0.3125q-0.25 1.875 -1.25 3.125q-1.0 1.25 -2.0625 2.3125q-1.0625 1.0625 -2.0625 2.25q-1.0 1.1875 -1.25 3.0625q-1.875 1.0 -3.6875 2.6875q-1.8125 1.6875 -3.1875 2.3125q-1.0 0.5 -2.125 0.8125q-1.125 0.3125 -2.25 0.8125q-3.625 1.625 -7.4375 3.375q-3.8125 1.75 -7.9375 1.75l-0.875 0q-0.5 0.5 -1.25 0.6875q-0.75 0.1875 -1.5 0.3125q-0.75 0.125 -1.5 0.375q-0.75 0.25 -1.125 0.75q-1.375 -0.5 -3.0 -0.5l-0.875 0q-2.125 0.5 -4.0 0.75q-1.875 0.25 -4.0 0.25q-3.75 0 -7.5 -0.5q-3.75 -0.5 -7.5 -0.875q-2.375 -1.875 -3.875 -4.6875q-1.5 -2.8125 -1.5 -5.9375q0 -2.375 1.0 -4.4375q1.0 -2.0625 2.625 -3.6875l0.375 0q1.125 0 2.3125 -0.5q1.1875 -0.5 2.3125 -0.5q1.25 0 2.0625 1.0q0.8125 1.0 1.25 2.375q0.4375 1.375 0.5625 2.8125q0.125 1.4375 0.125 2.3125q1.375 0.625 2.9375 0.75q1.5625 0.125 3.1875 0.125q1.625 0 3.625 -0.1875q2.0 -0.1875 4.0625 -0.625q2.0625 -0.4375 4.0 -1.0625q1.9375 -0.625 3.3125 -1.625q6.875 -0.625 12.125 -3.125q5.25 -2.5 11.125 -5.875q0.25 -1.375 1.0625 -2.1875q0.8125 -0.8125 0.8125 -2.4375q0 -0.25 -0.0625 -0.5625q-0.0625 -0.3125 -0.0625 -0.5625q-2.5 -3.125 -5.1875 -5.5q-2.6875 -2.375 -6.9375 -3.125q-0.5 -1.125 -1.625 -1.6875q-1.125 -0.5625 -2.375 -1.0625q-1.25 -0.5 -2.375 -1.0625q-1.125 -0.5625 -1.625 -1.9375q-3.375 -0.625 -6.9375 -1.5625q-3.5625 -0.9375 -6.0625 -3.4375q-2.0 -0.125 -3.8125 -0.8125q-1.8125 -0.6875 -3.5625 -1.375q-1.75 -0.6875 -3.625 -1.25q-1.875 -0.5625 -3.875 -0.5625q-0.5 -0.875 -1.375 -1.375q-0.875 -0.5 -1.9375 -0.875q-1.0625 -0.375 -2.0 -0.8125q-0.9375 -0.4375 -1.4375 -1.3125q-0.5 0.125 -0.75 0.5q-0.25 0.375 -0.875 0.375l-0.5 0q-0.25 -0.75 -1.0 -1.0625q-0.75 -0.3125 -0.875 -1.3125q-2.25 -0.125 -4.0625 -0.875q-1.8125 -0.75 -3.375 -1.6875q-1.5625 -0.9375 -3.1875 -1.8125q-1.625 -0.875 -3.625 -1.375q-1.25 -1.0 -2.3125 -2.1875q-1.0625 -1.1875 -2.6875 -1.1875q-0.375 0 -1.375 0.25q-0.25 -2.25 -1.875 -3.1875q-1.625 -0.9375 -3.5 -1.6875q-1.25 -3.25 -3.375 -5.75q-2.125 -2.5 -4.625 -4.625q0.25 -0.75 0.25 -1.125q0 -1.25 -0.625 -2.1875q-0.625 -0.9375 -1.375 -1.5625q-1.75 -5.625 -1.75 -11.0q0 -7.5 3.3125 -13.9375q3.3125 -6.4375 10.4375 -9.6875q0.125 -1.0 0.6875 -1.75q0.5625 -0.75 0.6875 -1.75q1.125 0 1.75 -0.5q0.625 -0.5 1.1875 -1.0625q0.5625 -0.5625 1.1875 -1.0625q0.625 -0.5 1.625 -0.625q4.75 -4.125 10.125 -6.6875q5.375 -2.5625 11.0 -5.3125q1.125 -0.5 1.875 -1.875l0.75 0q1.25 0 1.9375 -0.5625q0.6875 -0.5625 2.0625 -0.3125q0.5 -0.75 1.3125 -1.0q0.8125 -0.25 1.625 -0.4375q0.8125 -0.1875 1.5625 -0.5625q0.75 -0.375 1.0 -1.125l0.875 0q2.125 0 4.125 -0.6875q2.0 -0.6875 4.0 -1.5625l0.875 0q2.5 0 4.6875 -0.9375q2.1875 -0.9375 4.6875 -1.3125q1.0 -0.25 2.0 -0.125q1.0 0.125 2.0 0.125q0.625 0 1.5 -0.125q0.875 -0.125 1.25 -0.75l0.25 0q0.75 0 0.875 0.5q0.125 0.5 0.75 0.5q0.875 0 1.75 -0.25q0.875 -0.25 1.75 -0.25q3.75 0 7.4375 0.75q3.6875 0.75 7.3125 1.375q0.25 1.5 1.3125 2.125q1.0625 0.625 2.3125 1.125l0 0.5q0 1.0 0.5 1.625q-0.5 1.75 -1.75 2.625q-1.25 0.875 -2.75 1.5q0.625 0.5 0.75 1.375q0.125 0.875 0.125 1.625l0 1.5l-0.625 -0.125q-2.0 0 -2.0 1.875q-1.625 -1.0 -3.5625 -1.25q-1.9375 -0.25 -3.8125 -0.25q-2.5 0 -5.25 0.1875q-2.75 0.1875 -5.375 -0.0625q-1.0 1.25 -2.5 1.8125q-1.5 0.5625 -3.0 0.5625q-1.625 0 -3.125 -0.6875q-1.5 -0.6875 -2.125 -2.0625q-0.625 -0.25 -1.125 -0.25l-1.125 0q-2.0 0 -3.9375 0.4375q-1.9375 0.4375 -3.9375 1.0q-2.0 0.5625 -3.9375 1.125q-1.9375 0.5625 -3.9375 0.6875q-0.75 1.0 -2.0 1.375q-1.25 0.375 -2.0 1.375q-2.625 0.5 -4.75 1.6875q-2.125 1.1875 -4.125 2.5625l-3.875 2.625q-1.875 1.25 -4.25 2.125q-1.75 1.875 -3.25 3.0q-1.5 1.125 -3.875 2.0q-1.5 0.5 -1.6875 1.5q-0.1875 1.0 -1.0625 2.0q-0.75 0.875 -1.8125 1.3125q-1.0625 0.4375 -1.8125 1.4375q-0.625 0.875 -0.9375 2.0625q-0.3125 1.1875 -0.6875 2.3125q-0.375 1.125 -0.875 2.1875q-0.5 1.0625 -1.5 1.8125q0 0.5 -0.0625 1.0q-0.0625 0.5 -0.0625 0.875q0 1.75 0.4375 3.5625q0.4375 1.8125 0.5625 3.5625q2.5 4.375 5.875 7.9375q3.375 3.5625 7.25 6.5625q3.875 3.0 8.0625 5.625q4.1875 2.625 8.3125 5.125q1.5 -0.125 2.75 0.3125q1.25 0.4375 2.625 0.5625q1.5 1.125 3.5 1.75l4.0 1.25q2.0 0.625 3.875 1.4375q1.875 0.8125 3.125 2.1875q0.625 0.125 1.125 0.3125q0.5 0.1875 1.125 0.1875q0.75 0 0.875 -0.5q5.625 2.125 11.0 4.6875q5.375 2.5625 11.375 3.9375q2.375 2.0 5.25 3.5q2.875 1.5 5.75 3.0625q2.875 1.5625 5.5 3.375q2.625 1.8125 4.625 4.3125q0.25 2.375 1.0625 4.5625q0.8125 2.1875 0.8125 4.6875zm100.5 -17.875q0 1.25 -0.6875 2.0625q-0.6875 0.8125 -1.625 1.4375q-0.9375 0.625 -1.875 1.125q-0.9375 0.5 -1.6875 1.25q-0.5 0.5 -0.6875 1.1875q-0.1875 0.6875 -0.6875 0.9375q-0.75 0.625 -1.625 0.75q-0.875 0.125 -1.8125 0.3125q-0.9375 0.1875 -1.8125 0.5q-0.875 0.3125 -1.5 1.1875q-5.875 0.625 -11.5625 1.625q-5.6875 1.0 -11.6875 1.0q-1.125 0 -2.4375 0.1875q-1.3125 0.1875 -2.4375 0.3125q-2.625 0.25 -5.1875 0.375q-2.5625 0.125 -5.1875 0.125q-3.625 0 -7.25 -0.3125q-3.625 -0.3125 -7.125 -1.0625q-0.875 -0.625 -2.0 -1.0q-1.125 -0.375 -2.3125 -0.75q-1.1875 -0.375 -2.1875 -0.875q-1.0 -0.5 -1.5 -1.5q-1.875 -0.125 -3.3125 -0.75q-1.4375 -0.625 -2.625 -1.4375q-1.1875 -0.8125 -2.4375 -1.6875q-1.25 -0.875 -2.875 -1.5q-1.25 -1.75 -2.5625 -3.4375q-1.3125 -1.6875 -3.1875 -2.8125q-0.375 -2.375 -1.1875 -4.75q-0.8125 -2.375 -1.625 -4.6875q-0.8125 -2.3125 -1.375 -4.6875q-0.5625 -2.375 -0.5625 -4.875q0 -1.75 0.5 -4.25q0.5 -2.5 1.3125 -5.0625q0.8125 -2.5625 1.9375 -4.8125q1.125 -2.25 2.25 -3.625q0.375 -0.375 0.875 -0.625q0.5 -0.25 0.875 -0.75q1.125 -1.25 2.375 -2.0625q1.25 -0.8125 2.625 -1.9375q0.5 -0.5 0.8125 -1.125q0.3125 -0.625 0.9375 -1.125q0.375 -0.25 1.0625 -0.125q0.6875 0.125 1.1875 -0.25q0.5 -0.375 0.5 -0.875q0 -0.5 0.375 -0.875q0.125 -0.125 0.75 -0.0625q0.625 0.0625 0.75 0.0625q0.875 0 2.0 -1.1875q1.125 -1.1875 1.875 -1.5625q0.875 -0.5 1.75 -0.6875q0.875 -0.1875 1.875 -0.6875q1.375 -0.75 2.6875 -1.1875q1.3125 -0.4375 2.6875 -1.0625q0.75 -0.25 1.375 -0.875q0.625 -0.625 1.25 -0.875q1.125 -0.375 2.4375 -0.5625q1.3125 -0.1875 2.5 -0.375q1.1875 -0.1875 2.375 -0.5q1.1875 -0.3125 2.1875 -1.1875l1.0 0q2.25 0 4.375 -0.625q2.125 -0.625 4.375 -0.625q0.625 0 1.875 0.25q1.0 -0.625 2.25 -0.625q2.125 0 4.25 1.0625q2.125 1.0625 4.375 1.0625l0.75 0q0.5 0 1.0 -0.125q1.375 1.375 3.3125 1.5q1.9375 0.125 3.3125 1.125q0.875 0.75 1.4375 1.75q0.5625 1.0 0.9375 2.125l0.75 2.25q0.375 1.125 1.0 2.0q-0.625 4.5 -3.6875 7.1875q-3.0625 2.6875 -7.6875 2.6875q-1.75 0 -2.9375 -0.4375q-1.1875 -0.4375 -2.125 -0.9375q-0.9375 -0.5 -1.9375 -1.0q-1.0 -0.5 -2.25 -0.75q1.375 -2.5 1.75 -5.375q-1.375 -0.625 -2.75 -0.875q-1.375 -0.25 -2.625 -0.875q-3.375 0.875 -6.5625 1.1875q-3.1875 0.3125 -5.9375 2.6875q-0.625 -0.125 -1.3125 -0.25q-0.6875 -0.125 -1.3125 -0.125q-0.75 0 -3.0 1.0625q-2.25 1.0625 -4.8125 2.4375q-2.5625 1.375 -4.875 2.75q-2.3125 1.375 -3.1875 1.875q-1.0 0.625 -1.75 1.5q-0.75 0.875 -1.5 1.8125q-0.75 0.9375 -1.5 1.75q-0.75 0.8125 -1.875 1.1875q-0.25 1.375 -0.875 2.375q-0.625 1.0 -1.375 2.125q-0.125 2.25 -0.4375 4.5q-0.3125 2.25 -0.3125 4.5l0 1.625q0 0.75 0.25 1.375q1.25 1.625 2.0625 3.625q0.8125 2.0 2.8125 2.75q0.125 0.5 -0.0625 0.625q-0.1875 0.125 -0.3125 0.625q0.75 1.375 1.9375 2.1875q1.1875 0.8125 2.4375 1.625q1.25 0.8125 2.375 1.6875q1.125 0.875 1.75 2.25q1.875 0 3.5625 0.625q1.6875 0.625 3.25 1.375q1.5625 0.75 3.0 1.375q1.4375 0.625 2.9375 0.625q1.375 0 2.5 -0.375q3.25 1.0 6.5625 1.4375q3.3125 0.4375 6.6875 0.4375q4.125 0 8.25 -0.5q4.125 -0.5 8.25 -0.875q1.5 -0.25 2.875 -0.25q1.375 0 2.75 -0.25q1.75 -0.25 3.3125 -1.625q1.5625 -1.375 3.0625 -2.0q1.375 0.875 3.25 0.875q2.125 0 4.125 -0.6875q2.0 -0.6875 4.125 -0.6875l0.625 0zm158.875 0.75q-0.25 1.875 -1.3125 2.875q-1.0625 1.0 -2.4375 1.875q-0.625 -0.125 -1.1875 -0.1875q-0.5625 -0.0625 -1.1875 -0.0625q-3.875 -0.125 -7.3125 1.0q-3.4375 1.125 -7.0625 1.625q-1.25 0.25 -2.3125 0.1875q-1.0625 -0.0625 -2.1875 0.1875q-4.0 0.625 -8.5 1.0q-4.5 0.375 -9.0 0.9375q-4.5 0.5625 -8.8125 1.375q-4.3125 0.8125 -8.0625 2.3125q-0.375 -0.25 -0.75 -0.5625q-0.375 -0.3125 -0.875 -0.3125q-1.25 0 -2.375 0.375q-1.125 0.375 -2.25 0.25q-1.25 0.75 -2.6875 1.0625q-1.4375 0.3125 -2.875 0.5q-1.4375 0.1875 -2.8125 0.5625q-1.375 0.375 -2.625 1.375q-1.0 -0.5 -2.4375 -0.5625q-1.4375 -0.0625 -1.9375 -0.9375q-2.875 1.375 -6.0625 1.75q-3.1875 0.375 -6.4375 0.25q-2.125 -0.125 -4.875 -0.625q-2.75 -0.5 -5.5 -1.4375q-2.75 -0.9375 -5.125 -2.25q-2.375 -1.3125 -3.625 -3.1875q-0.875 -1.25 -1.25 -2.75q-0.375 -1.5 -1.75 -2.25q0.375 -2.875 0.875 -5.625q0.5 -2.75 1.0 -5.625q2.5 -2.125 4.75 -4.5q2.25 -2.375 4.25 -5.0q2.375 -1.125 4.4375 -2.75q2.0625 -1.625 4.125 -3.3125q2.0625 -1.6875 4.125 -3.3125q2.0625 -1.625 4.4375 -2.875q0.375 -0.875 1.0625 -1.4375q0.6875 -0.5625 1.4375 -1.125q0.75 -0.5625 1.375 -1.25q0.625 -0.6875 0.875 -1.6875q4.375 -2.625 7.625 -6.625q3.25 -4.0 4.25 -9.0q-2.125 -1.75 -4.8125 -2.3125q-2.6875 -0.5625 -5.5625 -0.8125q-2.5 -0.125 -5.1875 0q-2.6875 0.125 -5.4375 -0.125q-2.75 0.875 -5.6875 1.125q-2.9375 0.25 -5.8125 0.4375q-2.875 0.1875 -5.6875 0.75q-2.8125 0.5625 -5.4375 2.0625q-0.5 0 -0.9375 -0.125q-0.4375 -0.125 -0.9375 -0.125q-4.0 -0.125 -7.5 1.5625q-3.5 1.6875 -6.875 3.3125q-0.25 0.5 -0.25 0.75q0 0.75 0.3125 1.4375q0.3125 0.6875 0.3125 1.4375q-0.125 0.125 -0.125 0.25q0 0.125 -0.125 0.25q-0.125 0.625 -0.3125 1.125q-0.1875 0.5 -0.4375 1.125q-1.375 4.0 -1.5 7.875q-0.125 3.25 0 6.375q0.125 3.125 0 6.375q-0.25 4.0 -1.25 7.5q0.625 3.0 1.125 6.3125q0.5 3.3125 1.25 6.5625q0.75 3.25 1.8125 6.3125q1.0625 3.0625 2.8125 5.8125q-0.125 0.25 0.125 0.375q0.25 0.125 0.5 0.125l1.0 0q0.625 0 0.5 0.5q0.25 0.375 0.375 0.6875q0.125 0.3125 0.5 0.5625q0.25 0.375 0 1.0q-0.125 2.5 -1.25 4.625q-1.125 2.125 -1.375 4.625q-1.5 0.375 -2.75 0.375q-2.125 -0.125 -3.75 -1.1875q-1.625 -1.0625 -3.0 -2.5625q-1.375 -1.5 -2.625 -3.0625q-1.25 -1.5625 -2.75 -2.6875q-0.875 -3.5 -1.6875 -7.75q-0.8125 -4.25 -2.6875 -7.25q0.5 -1.125 0.5 -2.75q0.125 -2.5 -0.4375 -4.9375q-0.5625 -2.4375 -0.3125 -4.9375q0 -1.375 0.3125 -2.75q0.3125 -1.375 0.4375 -2.75q0.125 -2.125 -0.4375 -4.125q-0.5625 -2.0 -0.4375 -4.125q0.125 -1.0 0.4375 -1.9375q0.3125 -0.9375 0.9375 -1.6875q-0.625 -1.5 -0.375 -2.875q0.125 -2.125 0.5 -4.0q0.375 -1.875 0.5 -3.75q0 -1.0 -0.125 -1.9375q-0.125 -0.9375 -0.375 -1.8125l-1.125 -0.375q-0.75 0 -1.4375 0.375q-0.6875 0.375 -1.1875 0.875q-0.5 0.5 -0.875 0.8125q-0.375 0.3125 -0.75 0.3125q-0.25 0 -0.5625 -0.0625q-0.3125 -0.0625 -0.5625 -0.0625q-0.25 0 -0.9375 0.5q-0.6875 0.5 -1.625 1.0625q-0.9375 0.5625 -1.8125 1.125q-0.875 0.5625 -1.375 0.6875q-1.375 -0.25 -2.1875 -0.9375q-0.8125 -0.6875 -1.5 -1.375q-0.6875 -0.6875 -1.4375 -1.25q-0.75 -0.5625 -1.875 -0.4375q-0.375 -0.75 -0.4375 -1.625q-0.0625 -0.875 0.0625 -1.75l0 -2.0q0.875 -1.625 2.3125 -2.6875q1.4375 -1.0625 3.0625 -1.8125l3.25 -1.5q1.625 -0.75 3.0 -1.875l1.125 0q2.25 0.125 3.9375 -0.875q1.6875 -1.0 3.1875 -2.3125q1.5 -1.3125 3.0625 -2.6875q1.5625 -1.375 3.4375 -2.125q1.375 0.625 2.875 1.0625q1.5 0.4375 3.125 0.5625q1.625 0 3.375 -0.5q1.75 -0.5 2.75 -1.875q0.625 0.25 1.0625 0.3125q0.4375 0.0625 1.0625 0.0625q1.875 0.125 3.75 -0.5625q1.875 -0.6875 3.625 -1.6875q2.5 0.125 4.9375 -0.3125q2.4375 -0.4375 4.875 -0.9375q2.4375 -0.5 4.875 -0.9375q2.4375 -0.4375 4.9375 -0.3125q4.125 0.125 8.125 -0.75q4.0 -0.875 8.125 -0.625q2.875 0.125 5.6875 0.4375q2.8125 0.3125 5.6875 0.1875q1.625 0.75 2.9375 1.3125q1.3125 0.5625 3.3125 0.3125q4.0 3.375 7.25 7.875l0 2.125q-0.125 2.875 -1.0 5.625q-0.875 2.75 -2.0625 5.4375q-1.1875 2.6875 -2.5625 5.25q-1.375 2.5625 -2.625 5.0625q-8.125 7.375 -16.25 14.625q-8.125 7.25 -16.75 14.0q-0.25 1.25 -0.6875 2.25q-0.4375 1.0 -0.5625 2.125q0 0.625 0.125 1.0q0.875 0.25 1.5625 0.9375q0.6875 0.6875 0.4375 1.8125l1.125 0q0.625 0 0.625 0.5l2.0 0.125q4.75 0.25 9.5 -0.25q4.75 -0.5 9.5625 -1.125q4.8125 -0.625 9.5625 -1.1875q4.75 -0.5625 9.5 -0.6875q1.125 -0.375 2.375 -0.625q1.25 -0.25 2.25 -1.0l0.375 0q0.875 0 1.3125 0.5q0.4375 0.5 1.3125 0.625q0.625 0 1.3125 -0.25q0.6875 -0.25 1.4375 -0.375q1.75 -0.5 3.6875 -0.625q1.9375 -0.125 3.8125 -0.375q7.25 -0.625 14.375 -0.8125q7.125 -0.1875 14.25 -1.8125q0.625 0.875 1.75 1.1875q1.125 0.3125 2.375 0.625q1.25 0.3125 2.3125 0.6875q1.0625 0.375 1.4375 1.5zm57.5 12.625q-0.375 1.75 -1.5625 2.8125q-1.1875 1.0625 -2.8125 1.6875q-1.625 0.625 -3.3125 0.8125q-1.6875 0.1875 -3.0625 0.1875q-0.625 0 -1.1875 -0.0625q-0.5625 -0.0625 -1.1875 -0.0625q-0.625 0 -0.625 0.625q0 0.625 -0.625 0.875q-0.625 -0.25 -1.25 -0.375q-0.625 -0.125 -1.25 -0.125q-0.875 0 -1.6875 0.125q-0.8125 0.125 -1.5625 0.125q-1.0 0 -1.4375 -0.25q-0.4375 -0.25 -0.75 -0.5625q-0.3125 -0.3125 -0.625 -0.6875q-0.3125 -0.375 -0.9375 -0.625q-0.875 -0.375 -1.4375 -0.125q-0.5625 0.25 -1.6875 -0.75q-1.5 -1.25 -2.5625 -3.0625q-1.0625 -1.8125 -2.0625 -3.8125q-1.0 -2.0 -2.125 -4.0q-1.125 -2.0 -2.625 -3.5l-1.0 0q-2.25 0 -3.125 1.875q-0.625 -0.375 -1.25 -0.9375q-0.625 -0.5625 -1.375 -0.9375q-2.875 0.875 -6.0 1.5q-3.125 0.625 -6.25 0.625l-1.75 0q-0.75 0 -1.625 -0.25q-1.25 0.5 -2.25 1.1875q-1.0 0.6875 -2.25 0.6875q-0.75 0 -1.75 -0.5q-0.75 0 -0.6875 0.625q0.0625 0.625 -0.8125 0.625l-1.125 0q-1.75 0 -3.4375 0.125q-1.6875 0.125 -3.4375 0.125q-2.375 0 -4.875 -0.625q-0.625 0.375 -1.375 0.375q-0.5 0.25 -0.75 0.8125q-0.25 0.5625 -0.5 1.0q-0.25 0.4375 -0.6875 0.75q-0.4375 0.3125 -1.1875 0.1875q-0.25 1.5 -1.25 2.375q-1.0 0.875 -1.0 2.625q-1.375 0.75 -2.25 1.875q-0.875 1.125 -1.75 2.375q-0.875 1.25 -1.8125 2.375q-0.9375 1.125 -2.3125 1.75q-0.625 0.75 -0.375 2.375q-1.375 1.125 -3.375 2.0q-2.0 0.875 -3.75 0.875q-3.625 0 -5.0 -3.875q0 -1.25 0.1875 -2.6875q0.1875 -1.4375 0.5625 -2.75q0.375 -1.3125 1.125 -2.375q0.75 -1.0625 2.125 -1.5625q0 -1.125 -0.75 -1.5625q-0.75 -0.4375 -0.625 -1.5625q3.375 -1.625 5.875 -4.25q2.5 -2.625 4.5625 -5.5625q2.0625 -2.9375 4.1875 -5.9375q2.125 -3.0 4.75 -5.375l0 -2.625q3.75 -4.0 4.875 -9.0q1.375 -0.25 1.8125 -1.25q0.4375 -1.0 0.4375 -2.375q0.625 0 0.8125 -0.5625q0.1875 -0.5625 1.0625 -0.3125q1.125 -3.0 2.5 -5.5q1.375 -2.5 2.75 -5.0625q1.375 -2.5625 2.4375 -5.3125q1.0625 -2.75 1.5625 -6.125q1.75 -0.125 1.9375 -1.6875q0.1875 -1.5625 0.4375 -2.8125q1.875 -1.75 2.8125 -4.125q0.9375 -2.375 1.6875 -4.9375q0.75 -2.5625 1.6875 -5.125q0.9375 -2.5625 2.6875 -4.5625l0 -0.375q0 -0.625 -0.5 -0.8125q-0.5 -0.1875 -0.5 -0.8125q0.125 -0.125 0.125 -0.25q1.5 -0.625 2.25 -2.0625q0.75 -1.4375 2.25 -2.0625q2.625 2.125 4.625 2.5625q2.0 0.4375 5.25 0.6875q1.625 1.75 1.8125 4.1875q0.1875 2.4375 0.8125 4.8125q1.0 4.0 2.1875 7.8125q1.1875 3.8125 1.8125 7.8125q0.375 2.375 1.375 4.5q1.0 2.125 1.375 4.375q0.25 1.75 0 3.9375q-0.25 2.1875 0.5 3.8125l0.875 2.0q0.625 1.375 1.0625 2.875q0.4375 1.5 0.8125 3.0q1.0 3.75 1.8125 8.0625q0.8125 4.3125 2.5625 7.8125q0.625 1.25 1.9375 1.75q1.3125 0.5 2.9375 0.6875q1.625 0.1875 3.1875 0.125q1.5625 -0.0625 2.6875 -0.0625l1.25 0q0.75 0 1.5 0.25q0.5 1.0 0.5 1.75q0 1.5 -1.0 2.375q-1.0 0.875 -1.0 2.0q0 0.625 0.5 1.375q-0.5 -0.125 -1.5 -0.125q-2.875 0 -5.625 1.0q1.0 2.125 2.6875 3.5625q1.6875 1.4375 3.5625 2.6875q1.25 -1.0 2.625 -1.0q1.5 0 2.8125 0.6875q1.3125 0.6875 2.8125 0.6875q1.125 0 1.625 -0.375q1.0 1.125 1.625 2.3125q0.625 1.1875 1.625 2.1875zm-39.125 -20.0q-0.25 -2.125 -0.8125 -3.0625q-0.5625 -0.9375 -0.9375 -2.3125q-0.5 -1.75 -0.6875 -3.75q-0.1875 -2.0 -0.5625 -3.875q-0.875 -4.25 -1.9375 -8.5q-1.0625 -4.25 -2.6875 -8.25q0.5 -0.75 0.5 -1.375l0 -0.375q-1.125 -1.25 -1.625 -3.0625q-0.5 -1.8125 -0.9375 -3.625q-0.4375 -1.8125 -1.125 -3.375q-0.6875 -1.5625 -2.1875 -2.5625q-0.375 0.75 -0.375 1.75q0 0.875 0.1875 1.625q0.1875 0.75 0.1875 1.625q-1.25 0.625 -1.8125 1.9375q-0.5625 1.3125 -1.8125 2.0625q-1.0 4.0 -2.875 7.5625q-1.875 3.5625 -3.9375 7.0625q-2.0625 3.5 -3.9375 7.0625q-1.875 3.5625 -3.0 7.4375q-1.625 1.125 -2.1875 2.875q-0.5625 1.75 -0.5625 3.5q1.125 0.625 2.5625 0.6875q1.4375 0.0625 2.8125 0.0625q1.375 0 2.625 0.25q1.25 0.25 2.25 1.25q1.625 -0.5 3.5625 -0.6875q1.9375 -0.1875 3.1875 -1.0625q2.5 0.875 5.375 0.875q1.5 0 2.9375 -0.25q1.4375 -0.25 2.8125 -0.625q1.125 0.25 1.75 0.8125q0.625 0.5625 1.875 0.4375q0.625 -0.5 0.75 -1.0625q0.125 -0.5625 0.625 -1.0625zm139.375 -51.25q-0.5 1.625 -1.625 3.0l-2.125 2.625q-1.0 1.25 -1.6875 2.6875q-0.6875 1.4375 -0.4375 3.3125q-0.25 0 -0.625 -0.0625q-0.375 -0.0625 -0.625 -0.0625q-2.0 0 -3.0625 0.9375q-1.0625 0.9375 -2.8125 1.5625q-0.25 -0.75 -0.625 -1.4375q-0.375 -0.6875 -1.125 -0.9375q-3.0 0.625 -6.0 0.9375q-3.0 0.3125 -6.0 0.8125q-1.375 0.25 -2.75 0.6875q-1.375 0.4375 -2.875 0.8125q-0.75 0.25 -1.625 0.1875q-0.875 -0.0625 -1.75 0.0625q-3.0 0.125 -6.5 0.4375q-3.5 0.3125 -6.25 1.9375q-1.25 -0.25 -2.625 -0.375q-1.375 -0.125 -2.75 -0.125q-3.0 0 -6.5625 0.5625q-3.5625 0.5625 -6.3125 2.1875q-0.625 -0.25 -1.3125 -0.375q-0.6875 -0.125 -1.5625 -0.125q-0.25 0 -0.375 0.0625q-0.125 0.0625 -0.375 0.0625q-0.125 1.125 0.3125 2.1875q0.4375 1.0625 1.5625 1.6875q-0.5 1.375 -0.5 3.0q0 2.125 0.3125 4.25q0.3125 2.125 0.3125 4.25q0 2.375 -0.625 3.75q1.25 3.75 1.25 8.0q0 1.5 -0.1875 2.9375q-0.1875 1.4375 -0.1875 3.0625q0 1.375 1.0 2.1875q1.0 0.8125 1.0 2.1875q0 0.5 -0.25 1.0q1.75 -0.375 3.375 -1.0625q1.625 -0.6875 3.375 -0.6875q1.0 0 1.9375 0.375q0.9375 0.375 1.6875 1.0q-0.125 0.625 -0.1875 1.375q-0.0625 0.75 -0.0625 1.5q0 1.375 0.0625 2.5625q0.0625 1.1875 0.1875 2.5625q-1.0 1.75 -2.3125 3.125q-1.3125 1.375 -1.8125 3.5q-1.875 0 -3.3125 0.8125q-1.4375 0.8125 -2.6875 1.75q-1.25 0.9375 -2.5 1.75q-1.25 0.8125 -2.75 0.8125q-1.875 0 -2.625 -0.5625q-0.75 -0.5625 -1.125 -1.1875q-0.375 -0.625 -0.6875 -1.125q-0.3125 -0.5 -1.3125 -0.375q-0.25 -1.625 -1.0 -3.0625q-0.75 -1.4375 -1.5625 -2.8125q-0.8125 -1.375 -1.625 -2.8125q-0.8125 -1.4375 -1.1875 -2.9375q-0.75 -3.25 -0.625 -6.75q0.125 -3.5 -1.125 -6.75q0.25 -1.75 0.375 -3.5625q0.125 -1.8125 0.125 -3.5625q0 -3.5 -0.1875 -6.9375q-0.1875 -3.4375 -0.3125 -7.0625q-0.875 -1.125 -1.0625 -2.5625q-0.1875 -1.4375 -0.3125 -2.8125q-0.375 -0.375 -0.8125 -0.75q-0.4375 -0.375 -0.5625 -1.0q-1.0 -0.25 -1.5 -0.25q-1.75 0 -2.9375 0.8125q-1.1875 0.8125 -2.1875 0.8125q-1.0 0 -1.875 -0.25q-0.875 -0.25 -1.75 -0.25q-0.75 0 -0.8125 0.3125q-0.0625 0.3125 -0.5625 0.5625q-0.375 0.25 -1.75 0.5q-1.375 0.25 -3.0625 0.4375q-1.6875 0.1875 -3.25 0.3125q-1.5625 0.125 -2.0625 0.125q-2.0 0 -3.0625 -0.8125q-1.0625 -0.8125 -2.5625 -1.8125q0.25 -0.75 0.25 -1.0q0 -1.25 -0.75 -2.0625q-0.75 -0.8125 -0.75 -1.4375q0 -1.375 1.0625 -2.125q1.0625 -0.75 1.1875 -2.375q2.875 -1.25 5.875 -1.875q3.0 -0.625 6.125 -1.0q3.125 -0.375 6.1875 -0.875q3.0625 -0.5 6.0625 -1.625q0.875 0.125 1.6875 0.1875q0.8125 0.0625 1.6875 0.0625q3.75 0 7.4375 -0.8125q3.6875 -0.8125 7.5625 -0.8125q1.0 0 2.0 0.125q1.0 0.125 2.0 0.375q5.0 -0.75 9.9375 -1.625q4.9375 -0.875 10.1875 -1.5q2.5 -0.25 4.9375 -0.4375q2.4375 -0.1875 4.9375 -0.5625q0.875 -0.125 1.3125 -0.4375q0.4375 -0.3125 0.4375 -1.3125q1.125 0.5 2.5 0.5q2.125 0 4.125 -0.75q2.0 -0.75 4.125 -0.75q0.5 0 0.875 0.0625q0.375 0.0625 0.75 0.0625q0.875 0 0.9375 -0.8125q0.0625 -0.8125 1.1875 -1.0625q0.875 -0.25 2.5 -0.375q1.625 -0.125 3.4375 -0.3125q1.8125 -0.1875 3.375 -0.5q1.5625 -0.3125 2.3125 -0.9375l0.875 -1.375q2.25 0.125 3.3125 1.9375q1.0625 1.8125 1.1875 3.9375q0.5 0.5 1.4375 0.4375q0.9375 -0.0625 1.6875 -0.0625l0.375 0zm76.25 57.875q0 1.25 -0.6875 2.0625q-0.6875 0.8125 -1.625 1.4375q-0.9375 0.625 -1.875 1.125q-0.9375 0.5 -1.6875 1.25q-0.5 0.5 -0.6875 1.1875q-0.1875 0.6875 -0.6875 0.9375q-0.75 0.625 -1.625 0.75q-0.875 0.125 -1.8125 0.3125q-0.9375 0.1875 -1.8125 0.5q-0.875 0.3125 -1.5 1.1875q-5.875 0.625 -11.5625 1.625q-5.6875 1.0 -11.6875 1.0q-1.125 0 -2.4375 0.1875q-1.3125 0.1875 -2.4375 0.3125q-2.625 0.25 -5.1875 0.375q-2.5625 0.125 -5.1875 0.125q-3.625 0 -7.25 -0.3125q-3.625 -0.3125 -7.125 -1.0625q-0.875 -0.625 -2.0 -1.0q-1.125 -0.375 -2.3125 -0.75q-1.1875 -0.375 -2.1875 -0.875q-1.0 -0.5 -1.5 -1.5q-1.875 -0.125 -3.3125 -0.75q-1.4375 -0.625 -2.625 -1.4375q-1.1875 -0.8125 -2.4375 -1.6875q-1.25 -0.875 -2.875 -1.5q-1.25 -1.75 -2.5625 -3.4375q-1.3125 -1.6875 -3.1875 -2.8125q-0.375 -2.375 -1.1875 -4.75q-0.8125 -2.375 -1.625 -4.6875q-0.8125 -2.3125 -1.375 -4.6875q-0.5625 -2.375 -0.5625 -4.875q0 -1.75 0.5 -4.25q0.5 -2.5 1.3125 -5.0625q0.8125 -2.5625 1.9375 -4.8125q1.125 -2.25 2.25 -3.625q0.375 -0.375 0.875 -0.625q0.5 -0.25 0.875 -0.75q1.125 -1.25 2.375 -2.0625q1.25 -0.8125 2.625 -1.9375q0.5 -0.5 0.8125 -1.125q0.3125 -0.625 0.9375 -1.125q0.375 -0.25 1.0625 -0.125q0.6875 0.125 1.1875 -0.25q0.5 -0.375 0.5 -0.875q0 -0.5 0.375 -0.875q0.125 -0.125 0.75 -0.0625q0.625 0.0625 0.75 0.0625q0.875 0 2.0 -1.1875q1.125 -1.1875 1.875 -1.5625q0.875 -0.5 1.75 -0.6875q0.875 -0.1875 1.875 -0.6875q1.375 -0.75 2.6875 -1.1875q1.3125 -0.4375 2.6875 -1.0625q0.75 -0.25 1.375 -0.875q0.625 -0.625 1.25 -0.875q1.125 -0.375 2.4375 -0.5625q1.3125 -0.1875 2.5 -0.375q1.1875 -0.1875 2.375 -0.5q1.1875 -0.3125 2.1875 -1.1875l1.0 0q2.25 0 4.375 -0.625q2.125 -0.625 4.375 -0.625q0.625 0 1.875 0.25q1.0 -0.625 2.25 -0.625q2.125 0 4.25 1.0625q2.125 1.0625 4.375 1.0625l0.75 0q0.5 0 1.0 -0.125q1.375 1.375 3.3125 1.5q1.9375 0.125 3.3125 1.125q0.875 0.75 1.4375 1.75q0.5625 1.0 0.9375 2.125l0.75 2.25q0.375 1.125 1.0 2.0q-0.625 4.5 -3.6875 7.1875q-3.0625 2.6875 -7.6875 2.6875q-1.75 0 -2.9375 -0.4375q-1.1875 -0.4375 -2.125 -0.9375q-0.9375 -0.5 -1.9375 -1.0q-1.0 -0.5 -2.25 -0.75q1.375 -2.5 1.75 -5.375q-1.375 -0.625 -2.75 -0.875q-1.375 -0.25 -2.625 -0.875q-3.375 0.875 -6.5625 1.1875q-3.1875 0.3125 -5.9375 2.6875q-0.625 -0.125 -1.3125 -0.25q-0.6875 -0.125 -1.3125 -0.125q-0.75 0 -3.0 1.0625q-2.25 1.0625 -4.8125 2.4375q-2.5625 1.375 -4.875 2.75q-2.3125 1.375 -3.1875 1.875q-1.0 0.625 -1.75 1.5q-0.75 0.875 -1.5 1.8125q-0.75 0.9375 -1.5 1.75q-0.75 0.8125 -1.875 1.1875q-0.25 1.375 -0.875 2.375q-0.625 1.0 -1.375 2.125q-0.125 2.25 -0.4375 4.5q-0.3125 2.25 -0.3125 4.5l0 1.625q0 0.75 0.25 1.375q1.25 1.625 2.0625 3.625q0.8125 2.0 2.8125 2.75q0.125 0.5 -0.0625 0.625q-0.1875 0.125 -0.3125 0.625q0.75 1.375 1.9375 2.1875q1.1875 0.8125 2.4375 1.625q1.25 0.8125 2.375 1.6875q1.125 0.875 1.75 2.25q1.875 0 3.5625 0.625q1.6875 0.625 3.25 1.375q1.5625 0.75 3.0 1.375q1.4375 0.625 2.9375 0.625q1.375 0 2.5 -0.375q3.25 1.0 6.5625 1.4375q3.3125 0.4375 6.6875 0.4375q4.125 0 8.25 -0.5q4.125 -0.5 8.25 -0.875q1.5 -0.25 2.875 -0.25q1.375 0 2.75 -0.25q1.75 -0.25 3.3125 -1.625q1.5625 -1.375 3.0625 -2.0q1.375 0.875 3.25 0.875q2.125 0 4.125 -0.6875q2.0 -0.6875 4.125 -0.6875l0.625 0zm77.0 -35.875q-0.5 1.25 -1.0 2.375q-0.5 1.125 -0.75 2.5q-0.875 0.625 -1.9375 0.9375q-1.0625 0.3125 -2.1875 0.625q-1.125 0.3125 -2.0625 0.75q-0.9375 0.4375 -1.4375 1.3125q-0.375 1.875 -0.375 3.5q0 2.125 0.75 3.625q-0.375 1.125 -0.5 2.375q-0.125 1.25 -0.125 2.375q0 4.125 1.0 8.1875q1.0 4.0625 1.125 8.1875q0 0.625 -0.125 1.375q-0.125 0.75 -0.125 1.375q0 2.625 2.0 3.5q-0.375 0.625 -0.375 1.125q0 1.0 0.25 1.75q0.25 0.75 0.125 1.625q0.625 1.25 1.25 2.1875q0.625 0.9375 0.875 2.3125q-0.875 1.75 -2.125 3.1875q-1.25 1.4375 -1.75 3.5625q-0.5 -0.125 -1.125 -0.125q-0.875 0 -1.375 0.375q-0.5 0.375 -0.8125 0.9375q-0.3125 0.5625 -0.6875 1.125q-0.375 0.5625 -1.0 0.8125l-0.375 0q-0.625 0.125 -1.0625 -0.0625q-0.4375 -0.1875 -0.8125 -0.1875q-0.25 0 -1.0 0.25q-1.0 -1.25 -1.375 -2.9375q-0.375 -1.6875 -0.375 -3.3125q0 -1.75 0.5 -3.125q-1.375 -1.125 -1.6875 -3.375q-0.3125 -2.25 -0.6875 -3.75q-1.0 -4.625 -2.3125 -9.0q-1.3125 -4.375 -1.5625 -9.0q-0.125 -1.75 -0.125 -3.375l0 -6.5q0 -1.625 0.125 -3.125q0 -1.125 0.1875 -2.1875q0.1875 -1.0625 0.1875 -2.1875q0 -1.5 -1.0 -2.875q-8.875 0.375 -16.8125 3.1875q-7.9375 2.8125 -15.8125 6.6875q-0.5 2.875 -0.625 5.625q-0.125 2.75 -0.125 5.625l0 5.5q0 3.125 0.25 5.25q0.625 3.625 3.6875 5.5625q3.0625 1.9375 6.1875 2.9375q-0.125 1.875 -0.75 3.1875q-0.625 1.3125 -1.5625 2.375q-0.9375 1.0625 -2.0625 2.0625q-1.125 1.0 -2.25 2.25q-1.0 -0.625 -2.0 -0.875q-1.0 -0.25 -2.125 -0.3125q-1.125 -0.0625 -2.25 -0.1875q-1.125 -0.125 -2.25 -0.5l-2.75 -3.75q-1.375 -1.875 -3.0 -3.75l0 -1.125q0 -3.375 -1.25 -6.5q-1.25 -3.125 -1.875 -6.375q0.375 -1.125 0.5 -2.25q0.125 -1.125 0.125 -2.375q0 -2.5 -0.1875 -4.875q-0.1875 -2.375 0.0625 -4.75l-0.625 0q-1.125 0 -2.375 0.5625q-1.25 0.5625 -2.4375 1.25q-1.1875 0.6875 -2.25 1.25q-1.0625 0.5625 -1.8125 0.5625q-0.375 0 -0.75 -0.125q-0.375 -0.125 -0.875 -0.125q-0.625 0 -1.5 0.5q-0.875 0.5 -1.9375 1.0625q-1.0625 0.5625 -2.1875 1.0625q-1.125 0.5 -2.25 0.5q-1.75 0 -3.5 -1.5q-0.25 -1.0 -0.1875 -1.875q0.0625 -0.875 0.0625 -1.875q0 -1.0 -0.375 -2.125q0.875 -1.625 2.3125 -2.5625q1.4375 -0.9375 3.0 -1.75q1.5625 -0.8125 3.1875 -1.625q1.625 -0.8125 2.75 -2.1875l0.75 0q1.75 0 3.1875 -0.75q1.4375 -0.75 3.3125 -0.625q0.625 -0.25 0.875 -1.875l0.5 0.125q2.75 0 4.875 -1.875q1.375 -7.75 2.25 -15.625q0.875 -7.875 0.875 -15.75q0 -0.75 -0.5 -1.5q-0.25 -1.0 -0.25 -1.875l0 -1.875q0 -1.375 0.125 -2.875q0.125 -1.5 0.625 -3.0q1.25 -0.75 2.625 -0.75q1.625 0 3.1875 0.4375q1.5625 0.4375 3.0625 0.6875q1.125 1.125 1.6875 2.5q0.5625 1.375 0.6875 2.8125q0.125 1.4375 0.0625 2.875q-0.0625 1.4375 -0.0625 2.8125q0 2.75 0.625 5.375q0.625 2.625 0.625 5.125q0 0.625 -0.4375 0.9375q-0.4375 0.3125 -0.4375 1.6875q0 1.375 0.25 2.875q0.25 1.5 0.25 3.0q0 1.75 -0.5 3.625q-0.5 1.875 -0.875 3.625q7.5 -0.625 15.375 -1.875q7.875 -1.25 15.0 -4.0q0.125 -0.25 0.125 -0.75q0 -0.75 -0.125 -1.5q-0.125 -0.75 -0.125 -1.625q0 -1.5 1.0 -2.375q-0.625 -3.5 -0.875 -7.0q-0.25 -3.5 -0.25 -7.0l0 -7.125q0 -3.5 -0.125 -7.0q1.0 -0.625 2.125 -0.625q1.375 0 2.5625 0.6875q1.1875 0.6875 2.8125 0.6875q1.125 0 1.875 -0.375q1.375 1.25 1.875 3.25q0.5 2.0 0.875 4.125q0.375 2.125 0.8125 4.1875q0.4375 2.0625 1.8125 3.3125l0.125 0.375q0 0.5 -0.5 0.75q-0.5 0.25 -0.5 1.0l0 0.5q0.5 2.0 0.75 4.125q0.25 2.125 0.4375 4.3125q0.1875 2.1875 0.5625 4.25q0.375 2.0625 1.375 3.8125q0.625 -0.125 1.625 -0.125q2.5 0 3.9375 1.6875q1.4375 1.6875 2.5625 3.4375zm113.125 -21.5l-0.5 0q-0.25 -0.125 -0.5 0q-0.25 0.125 -0.25 0.375q0.25 1.0 0.25 1.375q0 1.5 -0.9375 2.5625q-0.9375 1.0625 -0.9375 1.8125q0 0.375 0.4375 0.625q0.4375 0.25 0.6875 0.375q-0.625 0.75 -1.125 1.625q-0.5 0.875 -1.125 1.5q0.25 4.375 1.0625 8.5625q0.8125 4.1875 0.8125 8.4375q0 2.125 -0.4375 4.1875q-0.4375 2.0625 -0.9375 4.125q-0.5 2.0625 -0.9375 4.125q-0.4375 2.0625 -0.4375 4.1875q-1.625 3.25 -3.5 6.1875q-1.875 2.9375 -2.75 6.4375q-2.875 1.75 -4.9375 4.3125q-2.0625 2.5625 -4.0625 5.0625q-4.375 1.5 -8.0 4.0q-0.625 0.125 -1.125 0.125l-1.0 0q-4.75 0 -8.125 -1.75q-3.375 -1.75 -5.8125 -4.5625q-2.4375 -2.8125 -4.1875 -6.4375q-1.75 -3.625 -3.25 -7.5q-2.875 2.125 -5.1875 4.8125q-2.3125 2.6875 -4.6875 5.3125q-0.75 1.0 -1.8125 2.3125q-1.0625 1.3125 -2.0625 1.9375q-0.5 0.25 -1.0625 0.4375q-0.5625 0.1875 -1.1875 0.4375q-3.5 2.0 -5.5 5.375q-2.5 1.0 -4.8125 2.25q-2.3125 1.25 -4.4375 2.625q-2.375 0.125 -4.6875 0.3125q-2.3125 0.1875 -4.5625 0.1875q-3.5 0 -4.9375 -0.4375q-1.4375 -0.4375 -2.25 -1.125q-0.8125 -0.6875 -1.625 -1.6875q-0.8125 -1.0 -3.0625 -2.125q-0.625 -1.625 -1.1875 -3.25q-0.5625 -1.625 -1.5625 -3.0l0 -1.75q0 -1.125 -0.0625 -2.125q-0.0625 -1.0 -0.4375 -1.8125q-0.375 -0.8125 -1.25 -1.0625q0 -4.625 1.125 -9.125q1.125 -4.5 1.875 -9.125q0.625 -2.625 0.75 -5.375q0.125 -0.625 0.125 -1.375q0 -0.75 0.25 -1.5q0.25 -0.75 0.875 -1.25q0.625 -0.5 0.875 -1.5q0.625 -1.75 0.75 -3.875q0.125 -2.125 0.375 -4.0q0.625 -3.75 1.4375 -7.5q0.8125 -3.75 1.9375 -7.375q-0.125 -0.625 -0.125 -1.125l0 -1.25q0 -4.75 0.6875 -9.25q0.6875 -4.5 0.6875 -9.25q0 -2.25 -0.375 -4.75q0.625 -1.25 1.4375 -2.3125q0.8125 -1.0625 2.1875 -1.6875q2.625 1.375 5.1875 2.9375q2.5625 1.5625 4.9375 3.4375l0 3.0q0 3.625 -0.1875 7.6875q-0.1875 4.0625 -0.75 8.1875q-0.5625 4.125 -1.4375 8.0q-0.875 3.875 -2.375 7.125l0 4.0q-2.25 4.0 -3.0 8.375q-0.75 4.375 -1.75 8.75q-0.25 1.375 -1.0 3.25q-0.75 1.875 -0.75 3.25q0 0.625 0.1875 1.25q0.1875 0.625 0.3125 1.25q-1.0 2.25 -1.0625 4.8125q-0.0625 2.5625 -0.6875 5.0625q1.0 1.625 1.8125 3.4375q0.8125 1.8125 1.8125 3.6875l1.25 -0.125q1.125 0 2.375 0.1875q1.25 0.1875 2.375 0.1875q0.625 0 1.25 -0.0625q0.625 -0.0625 1.25 -0.1875q0.75 -1.375 2.0 -2.1875q1.25 -0.8125 2.5625 -1.4375q1.3125 -0.625 2.5 -1.375q1.1875 -0.75 1.9375 -2.125l1.75 0q0.25 -0.375 0.9375 -1.0q0.6875 -0.625 1.3125 -1.25q0.625 -0.625 1.0625 -1.25q0.4375 -0.625 0.3125 -1.0q1.5 -0.625 2.5625 -1.6875q1.0625 -1.0625 2.0625 -2.25q1.0 -1.1875 2.0 -2.3125q1.0 -1.125 2.375 -1.875q-0.125 -0.25 -0.125 -0.625q0 -1.125 0.6875 -1.75q0.6875 -0.625 0.3125 -2.25l0.375 0.125q0.625 0 0.875 -0.375q0.25 -0.375 0.4375 -0.875q0.1875 -0.5 0.5 -0.9375q0.3125 -0.4375 0.9375 -0.5625l0 -0.25q0 -2.25 0.9375 -4.25q0.9375 -2.0 0.9375 -4.25q0 -0.625 -0.125 -1.1875q-0.125 -0.5625 -0.375 -1.1875q1.125 -1.25 1.4375 -2.875q0.3125 -1.625 0.375 -3.375q0.0625 -1.75 0.1875 -3.5q0.125 -1.75 1.0 -3.375q0 -1.25 -0.875 -1.75l1.5 -2.0q0.75 -1.0 1.75 -1.625l0.25 0q1.375 0 2.4375 0.6875q1.0625 0.6875 2.0 1.5q0.9375 0.8125 1.9375 1.625q1.0 0.8125 2.25 1.1875l0 2.75q1.25 0.5 1.875 1.75q-0.125 3.375 -0.1875 6.75q-0.0625 3.375 -0.0625 6.625q0 5.0 0.25 9.9375q0.25 4.9375 1.25 9.8125q1.375 1.375 2.8125 2.75q1.4375 1.375 2.1875 3.125l1.5 0q4.375 0 6.75 -2.8125q2.375 -2.8125 3.375 -6.5625q1.875 -0.875 2.8125 -2.4375q0.9375 -1.5625 1.5 -3.4375q0.5625 -1.875 1.0 -3.8125q0.4375 -1.9375 1.4375 -3.4375q0.125 -1.5 0.125 -3.0l0 -3.125q0 -7.25 -0.6875 -14.4375q-0.6875 -7.1875 -0.8125 -14.3125q-0.5 -1.0 -0.75 -2.375l-0.375 -2.75q-0.125 -1.375 -0.5625 -2.5625q-0.4375 -1.1875 -1.3125 -1.6875q0.375 -1.25 0.375 -3.0q0 -1.625 -0.3125 -3.25q-0.3125 -1.625 -0.6875 -3.25q1.0 -0.875 1.625 -1.75q0.625 -0.875 2.125 -0.875q0.875 0 1.5625 0.5q0.6875 0.5 1.3125 1.125q0.625 0.625 1.3125 1.125q0.6875 0.5 1.6875 0.5q0.25 0 0.5625 -0.0625q0.3125 -0.0625 0.6875 -0.0625q1.25 1.25 2.0625 3.125q0.8125 1.875 1.5 3.9375q0.6875 2.0625 1.5 4.0625q0.8125 2.0 2.0625 3.625q0 0.375 -0.0625 0.6875q-0.0625 0.3125 -0.0625 0.6875q0 1.125 0.375 2.25q0.375 1.125 0.625 2.25zm87.125 7.5q-0.75 1.125 -0.875 2.5q-0.125 1.375 -0.125 2.5q0 1.5 0.0625 2.9375q0.0625 1.4375 0.0625 2.8125l0 1.875q-0.25 0.875 -0.75 1.75q-0.5 0.875 -0.75 1.75q-1.75 4.625 -1.75 9.25l0 0.25q-0.625 1.5 -1.1875 2.75q-0.5625 1.25 -1.0625 2.4375q-0.5 1.1875 -0.75 2.5q-0.25 1.3125 -0.125 3.0625q-1.75 4.375 -4.625 7.9375q-2.875 3.5625 -5.625 7.3125q-2.625 1.0 -4.8125 2.625q-2.1875 1.625 -4.1875 3.625q-3.875 1.25 -7.625 2.875q-3.75 1.625 -6.75 4.375q-2.375 0.25 -4.75 0.75q-2.375 0.5 -4.625 1.5l-1.5 0q-1.125 0 -1.625 -0.5q-1.625 0.875 -3.375 1.1875q-1.75 0.3125 -3.5 0.3125q-2.25 0 -4.4375 -0.3125q-2.1875 -0.3125 -4.4375 -0.6875q-1.25 -1.75 -3.5 -2.6875q-2.25 -0.9375 -4.0 -1.8125q-3.625 -5.0 -5.25 -9.6875q-1.625 -4.6875 -3.375 -10.5625q0.25 -1.75 0.875 -3.4375q0.625 -1.6875 0.5 -3.6875q2.25 -6.5 5.9375 -11.8125q3.6875 -5.3125 8.4375 -10.1875q0 -0.75 0.3125 -1.25q0.3125 -0.5 0.0625 -1.5q0.125 0.125 0.5 0.125q1.0 0 1.25 -0.5625q0.25 -0.5625 0.125 -1.3125q4.5 -2.875 8.1875 -6.625q3.6875 -3.75 8.4375 -6.25q0.375 -1.125 1.25 -1.875q0.875 -0.75 1.375 -1.75q4.0 -1.125 7.25 -3.375q3.25 -2.25 6.875 -4.0q2.0 -1.125 3.8125 -1.5625q1.8125 -0.4375 3.9375 -0.9375q0.75 -0.25 1.375 -0.375q0.625 -0.125 1.375 -0.125q2.25 0 4.375 0.8125q2.125 0.8125 4.375 0.8125q0.625 0 1.0625 -0.0625q0.4375 -0.0625 0.9375 -0.1875q2.125 2.625 5.375 4.0q0.75 1.875 1.8125 3.25q1.0625 1.375 2.1875 2.6875q1.125 1.3125 2.0625 2.875q0.9375 1.5625 1.1875 3.6875zm-12.5 6.5q0 -0.625 -0.125 -1.125q-1.25 -0.375 -2.375 -1.0q-1.125 -0.625 -2.5 -0.625q-0.875 0 -1.75 0.375q-0.125 -0.875 -0.6875 -1.25q-0.5625 -0.375 -1.25 -0.6875q-0.6875 -0.3125 -1.375 -0.5q-0.6875 -0.1875 -1.1875 -0.6875q-0.375 -1.0 -0.8125 -2.0625q-0.4375 -1.0625 -1.5625 -1.5625q-1.125 1.125 -2.625 1.8125q-1.5 0.6875 -3.0625 1.3125q-1.5625 0.625 -3.0 1.5q-1.4375 0.875 -2.4375 2.125l-2.25 0q-0.75 1.375 -2.125 2.0625q-1.375 0.6875 -2.375 1.9375q-2.0 1.0 -3.6875 2.4375q-1.6875 1.4375 -3.3125 3.0q-1.625 1.5625 -3.1875 3.1875q-1.5625 1.625 -3.3125 3.0q-1.625 3.5 -3.5625 6.0625q-1.9375 2.5625 -3.625 5.1875q-1.6875 2.625 -2.875 5.6875q-1.1875 3.0625 -1.1875 7.5625l0 1.25q0 0.625 0.125 1.25q1.625 1.75 2.6875 3.75q1.0625 2.0 3.5625 2.875q2.5 1.0 5.3125 0.875q2.8125 -0.125 5.4375 0.625q6.0 -1.125 11.5625 -3.6875q5.5625 -2.5625 10.5625 -6.1875q0.75 -0.625 1.75 -1.3125q1.0 -0.6875 1.625 -1.4375q0.625 -0.625 1.0625 -1.375q0.4375 -0.75 0.9375 -1.375q1.0 -1.625 2.25 -3.25q1.25 -1.625 2.625 -3.0q0.625 -2.75 1.625 -5.3125q1.0 -2.5625 2.0 -5.0625q1.0 -2.5 1.6875 -5.125q0.6875 -2.625 0.6875 -5.5q0 -0.625 -0.0625 -1.375q-0.0625 -0.75 -0.1875 -1.375q1.0 -1.375 1.0 -3.0zm181.0 44.125q-0.25 1.875 -1.3125 2.875q-1.0625 1.0 -2.4375 1.875q-0.625 -0.125 -1.1875 -0.1875q-0.5625 -0.0625 -1.1875 -0.0625q-3.875 -0.125 -7.3125 1.0q-3.4375 1.125 -7.0625 1.625q-1.25 0.25 -2.3125 0.1875q-1.0625 -0.0625 -2.1875 0.1875q-4.0 0.625 -8.5 1.0q-4.5 0.375 -9.0 0.9375q-4.5 0.5625 -8.8125 1.375q-4.3125 0.8125 -8.0625 2.3125q-0.375 -0.25 -0.75 -0.5625q-0.375 -0.3125 -0.875 -0.3125q-1.25 0 -2.375 0.375q-1.125 0.375 -2.25 0.25q-1.25 0.75 -2.6875 1.0625q-1.4375 0.3125 -2.875 0.5q-1.4375 0.1875 -2.8125 0.5625q-1.375 0.375 -2.625 1.375q-1.0 -0.5 -2.4375 -0.5625q-1.4375 -0.0625 -1.9375 -0.9375q-2.875 1.375 -6.0625 1.75q-3.1875 0.375 -6.4375 0.25q-2.125 -0.125 -4.875 -0.625q-2.75 -0.5 -5.5 -1.4375q-2.75 -0.9375 -5.125 -2.25q-2.375 -1.3125 -3.625 -3.1875q-0.875 -1.25 -1.25 -2.75q-0.375 -1.5 -1.75 -2.25q0.375 -2.875 0.875 -5.625q0.5 -2.75 1.0 -5.625q2.5 -2.125 4.75 -4.5q2.25 -2.375 4.25 -5.0q2.375 -1.125 4.4375 -2.75q2.0625 -1.625 4.125 -3.3125q2.0625 -1.6875 4.125 -3.3125q2.0625 -1.625 4.4375 -2.875q0.375 -0.875 1.0625 -1.4375q0.6875 -0.5625 1.4375 -1.125q0.75 -0.5625 1.375 -1.25q0.625 -0.6875 0.875 -1.6875q4.375 -2.625 7.625 -6.625q3.25 -4.0 4.25 -9.0q-2.125 -1.75 -4.8125 -2.3125q-2.6875 -0.5625 -5.5625 -0.8125q-2.5 -0.125 -5.1875 0q-2.6875 0.125 -5.4375 -0.125q-2.75 0.875 -5.6875 1.125q-2.9375 0.25 -5.8125 0.4375q-2.875 0.1875 -5.6875 0.75q-2.8125 0.5625 -5.4375 2.0625q-0.5 0 -0.9375 -0.125q-0.4375 -0.125 -0.9375 -0.125q-4.0 -0.125 -7.5 1.5625q-3.5 1.6875 -6.875 3.3125q-0.25 0.5 -0.25 0.75q0 0.75 0.3125 1.4375q0.3125 0.6875 0.3125 1.4375q-0.125 0.125 -0.125 0.25q0 0.125 -0.125 0.25q-0.125 0.625 -0.3125 1.125q-0.1875 0.5 -0.4375 1.125q-1.375 4.0 -1.5 7.875q-0.125 3.25 0 6.375q0.125 3.125 0 6.375q-0.25 4.0 -1.25 7.5q0.625 3.0 1.125 6.3125q0.5 3.3125 1.25 6.5625q0.75 3.25 1.8125 6.3125q1.0625 3.0625 2.8125 5.8125q-0.125 0.25 0.125 0.375q0.25 0.125 0.5 0.125l1.0 0q0.625 0 0.5 0.5q0.25 0.375 0.375 0.6875q0.125 0.3125 0.5 0.5625q0.25 0.375 0 1.0q-0.125 2.5 -1.25 4.625q-1.125 2.125 -1.375 4.625q-1.5 0.375 -2.75 0.375q-2.125 -0.125 -3.75 -1.1875q-1.625 -1.0625 -3.0 -2.5625q-1.375 -1.5 -2.625 -3.0625q-1.25 -1.5625 -2.75 -2.6875q-0.875 -3.5 -1.6875 -7.75q-0.8125 -4.25 -2.6875 -7.25q0.5 -1.125 0.5 -2.75q0.125 -2.5 -0.4375 -4.9375q-0.5625 -2.4375 -0.3125 -4.9375q0 -1.375 0.3125 -2.75q0.3125 -1.375 0.4375 -2.75q0.125 -2.125 -0.4375 -4.125q-0.5625 -2.0 -0.4375 -4.125q0.125 -1.0 0.4375 -1.9375q0.3125 -0.9375 0.9375 -1.6875q-0.625 -1.5 -0.375 -2.875q0.125 -2.125 0.5 -4.0q0.375 -1.875 0.5 -3.75q0 -1.0 -0.125 -1.9375q-0.125 -0.9375 -0.375 -1.8125l-1.125 -0.375q-0.75 0 -1.4375 0.375q-0.6875 0.375 -1.1875 0.875q-0.5 0.5 -0.875 0.8125q-0.375 0.3125 -0.75 0.3125q-0.25 0 -0.5625 -0.0625q-0.3125 -0.0625 -0.5625 -0.0625q-0.25 0 -0.9375 0.5q-0.6875 0.5 -1.625 1.0625q-0.9375 0.5625 -1.8125 1.125q-0.875 0.5625 -1.375 0.6875q-1.375 -0.25 -2.1875 -0.9375q-0.8125 -0.6875 -1.5 -1.375q-0.6875 -0.6875 -1.4375 -1.25q-0.75 -0.5625 -1.875 -0.4375q-0.375 -0.75 -0.4375 -1.625q-0.0625 -0.875 0.0625 -1.75l0 -2.0q0.875 -1.625 2.3125 -2.6875q1.4375 -1.0625 3.0625 -1.8125l3.25 -1.5q1.625 -0.75 3.0 -1.875l1.125 0q2.25 0.125 3.9375 -0.875q1.6875 -1.0 3.1875 -2.3125q1.5 -1.3125 3.0625 -2.6875q1.5625 -1.375 3.4375 -2.125q1.375 0.625 2.875 1.0625q1.5 0.4375 3.125 0.5625q1.625 0 3.375 -0.5q1.75 -0.5 2.75 -1.875q0.625 0.25 1.0625 0.3125q0.4375 0.0625 1.0625 0.0625q1.875 0.125 3.75 -0.5625q1.875 -0.6875 3.625 -1.6875q2.5 0.125 4.9375 -0.3125q2.4375 -0.4375 4.875 -0.9375q2.4375 -0.5 4.875 -0.9375q2.4375 -0.4375 4.9375 -0.3125q4.125 0.125 8.125 -0.75q4.0 -0.875 8.125 -0.625q2.875 0.125 5.6875 0.4375q2.8125 0.3125 5.6875 0.1875q1.625 0.75 2.9375 1.3125q1.3125 0.5625 3.3125 0.3125q4.0 3.375 7.25 7.875l0 2.125q-0.125 2.875 -1.0 5.625q-0.875 2.75 -2.0625 5.4375q-1.1875 2.6875 -2.5625 5.25q-1.375 2.5625 -2.625 5.0625q-8.125 7.375 -16.25 14.625q-8.125 7.25 -16.75 14.0q-0.25 1.25 -0.6875 2.25q-0.4375 1.0 -0.5625 2.125q0 0.625 0.125 1.0q0.875 0.25 1.5625 0.9375q0.6875 0.6875 0.4375 1.8125l1.125 0q0.625 0 0.625 0.5l2.0 0.125q4.75 0.25 9.5 -0.25q4.75 -0.5 9.5625 -1.125q4.8125 -0.625 9.5625 -1.1875q4.75 -0.5625 9.5 -0.6875q1.125 -0.375 2.375 -0.625q1.25 -0.25 2.25 -1.0l0.375 0q0.875 0 1.3125 0.5q0.4375 0.5 1.3125 0.625q0.625 0 1.3125 -0.25q0.6875 -0.25 1.4375 -0.375q1.75 -0.5 3.6875 -0.625q1.9375 -0.125 3.8125 -0.375q7.25 -0.625 14.375 -0.8125q7.125 -0.1875 14.25 -1.8125q0.625 0.875 1.75 1.1875q1.125 0.3125 2.375 0.625q1.25 0.3125 2.3125 0.6875q1.0625 0.375 1.4375 1.5zm63.375 15.375q0 1.0 -0.875 1.625q-0.875 0.625 -2.0 1.25l-2.25 1.125q-1.125 0.5 -1.5 1.375q-1.375 -0.375 -2.6875 -0.5q-1.3125 -0.125 -2.5625 -0.125q-1.625 0 -3.375 0.3125q-1.75 0.3125 -2.75 1.6875q-0.625 -0.25 -1.125 -0.25l-1.0 0q-1.875 0 -3.8125 0.3125q-1.9375 0.3125 -3.8125 0.3125q-1.0 0 -1.9375 -0.125q-0.9375 -0.125 -1.6875 -0.75q-1.125 0.375 -2.375 0.375q-1.625 0 -3.125 -0.5q-1.5 -0.5 -2.9375 -1.1875q-1.4375 -0.6875 -2.9375 -1.3125q-1.5 -0.625 -3.0 -1.0l-0.875 -1.75q-2.0 -0.375 -3.6875 -1.1875q-1.6875 -0.8125 -3.3125 -1.8125q-1.625 -1.0 -3.1875 -1.9375q-1.5625 -0.9375 -3.1875 -1.3125q-0.625 -0.5 -1.125 -0.9375q-0.5 -0.4375 -0.75 -1.3125q-1.625 -0.375 -3.0 -1.0l-2.625 -1.375q-1.25 -0.75 -2.8125 -1.3125q-1.5625 -0.5625 -3.6875 -0.6875q-0.75 -1.125 -2.125 -2.125q-1.375 -1.0 -2.75 -1.0q-0.875 0 -1.375 0.375l0 0.625q0 1.5 0.875 3.0q0.875 1.5 2.25 2.125q-0.125 0.25 -0.125 0.75q0 0.75 0.3125 1.5q0.3125 0.75 1.1875 1.0q-0.5 1.375 -1.25 2.8125q-0.75 1.4375 -1.875 2.6875q-1.125 1.25 -2.4375 2.0625q-1.3125 0.8125 -2.9375 0.8125q-0.5 0.25 -0.6875 0.75q-0.1875 0.5 -0.25 1.0625q-0.0625 0.5625 -0.25 1.0625q-0.1875 0.5 -0.5625 0.75q-0.5 0.125 -1.375 0.125q-1.25 0 -2.125 -0.375q-0.875 -0.375 -1.875 -1.0l0 -0.5q0 -1.5 -0.5625 -2.375q-0.5625 -0.875 -1.25 -1.6875q-0.6875 -0.8125 -1.25 -1.6875q-0.5625 -0.875 -0.5625 -2.375q-0.375 0.25 -0.8125 0.375q-0.4375 0.125 -0.5625 0.5q-0.25 -1.25 -0.25 -2.125q0 -2.5 0.8125 -4.75q0.8125 -2.25 0.8125 -4.75l0 -1.875q0 -2.875 -0.125 -5.625q-0.125 -2.75 -0.125 -5.5q0 -2.375 0.125 -4.6875q0.125 -2.3125 0.5 -4.6875q1.375 -8.25 2.3125 -16.4375q0.9375 -8.1875 3.0625 -16.3125q-0.125 -0.625 -0.3125 -1.25q-0.1875 -0.625 -0.1875 -1.25q0 -0.5 0.125 -0.625q0.5 -2.5 2.25 -4.1875q1.75 -1.6875 4.5 -1.6875l0.375 0q1.5 0.625 2.3125 1.8125q0.8125 1.1875 2.5625 0.9375q0 0.25 -0.0625 0.5q-0.0625 0.25 -0.0625 0.5q0 1.375 0.75 2.0q0.75 0.625 1.75 1.375q-0.625 1.25 -0.8125 2.875q-0.1875 1.625 -0.3125 3.25q-0.125 1.625 -0.4375 3.125q-0.3125 1.5 -1.1875 2.5q0.5 1.25 0.625 2.5q0.125 1.25 0.125 2.625q0 1.375 -0.125 2.8125q-0.125 1.4375 -0.125 2.9375q0 1.375 0.375 2.5q2.75 0 3.125 -2.625q3.25 -0.875 5.8125 -2.4375q2.5625 -1.5625 4.9375 -3.3125q2.375 -1.75 4.6875 -3.625q2.3125 -1.875 5.1875 -3.25l0 -0.25q0 -0.625 0.375 -0.8125q0.375 -0.1875 0.125 -1.0625q1.875 -0.625 3.1875 -1.6875q1.3125 -1.0625 2.4375 -2.3125l2.375 -2.625q1.25 -1.375 2.75 -2.375q1.0 -2.125 1.8125 -4.5q0.8125 -2.375 2.1875 -4.375q2.375 0 5.1875 0.375q2.8125 0.375 4.8125 1.75q-0.25 1.0 0.875 1.375q-1.375 5.25 -4.125 9.4375q-2.75 4.1875 -7.125 7.0625q-0.625 1.375 -1.625 2.375q-1.0 1.0 -2.0 1.9375q-1.0 0.9375 -2.0 1.9375q-1.0 1.0 -1.625 2.375q-1.5 0.25 -2.5625 0.875q-1.0625 0.625 -2.0 1.4375q-0.9375 0.8125 -2.0 1.5q-1.0625 0.6875 -2.3125 1.0625q-1.0 1.25 -2.3125 2.125q-1.3125 0.875 -2.625 1.6875q-1.3125 0.8125 -2.4375 1.75q-1.125 0.9375 -1.625 2.4375l-3.25 0q-1.375 2.375 -3.5625 3.9375q-2.1875 1.5625 -4.4375 2.9375q0.375 1.5 1.375 2.4375q1.0 0.9375 2.1875 1.6875q1.1875 0.75 2.375 1.5625q1.1875 0.8125 2.0625 1.9375q5.25 2.0 10.125 4.5625q4.875 2.5625 9.25 6.1875q0.25 -0.125 0.625 -0.125q1.0 0 1.625 0.5625q0.625 0.5625 1.75 0.4375q0.5 1.25 1.375 1.6875q0.875 0.4375 1.8125 0.6875q0.9375 0.25 1.8125 0.75q0.875 0.5 1.25 1.75q1.875 0.125 3.4375 0.75q1.5625 0.625 2.8125 2.0l1.5 0q4.0 0 7.75 0.75q3.75 0.75 7.625 0.75q2.0 0 3.875 -0.3125q1.875 -0.3125 3.625 -1.1875q0.625 0.375 1.375 0.75q0.75 0.375 1.625 0.375q0.625 0 1.875 -0.25q0.125 1.375 0.9375 2.625q0.8125 1.25 0.8125 2.75z" fill-rule="nonzero"/></g></svg>